<?xml version="1.0" encoding="UTF-8" standalone="no"?>
<!-- Created with Inkscape (http://www.inkscape.org/) -->

<svg
   width="137.11514mm"
   height="119.31953mm"
   viewBox="0 0 137.11515 119.31953"
   version="1.1"
   id="svg1"
   xml:space="preserve"
   sodipodi:docname="logo.svg"
   inkscape:version="1.4 (86a8ad7, 2024-10-11)"
   inkscape:export-filename="logoPadded.png"
   inkscape:export-xdpi="96"
   inkscape:export-ydpi="96"
   xmlns:inkscape="http://www.inkscape.org/namespaces/inkscape"
   xmlns:sodipodi="http://sodipodi.sourceforge.net/DTD/sodipodi-0.dtd"
   xmlns="http://www.w3.org/2000/svg"
   xmlns:svg="http://www.w3.org/2000/svg"><sodipodi:namedview
     id="namedview1"
     pagecolor="#ffffff"
     bordercolor="#000000"
     borderopacity="0.25"
     inkscape:showpageshadow="2"
     inkscape:pageopacity="0.0"
     inkscape:pagecheckerboard="0"
     inkscape:deskcolor="#d1d1d1"
     inkscape:document-units="mm"
     inkscape:zoom="1.0289352"
     inkscape:cx="-192.91789"
     inkscape:cy="359.10911"
     inkscape:window-width="3440"
     inkscape:window-height="1351"
     inkscape:window-x="3431"
     inkscape:window-y="-9"
     inkscape:window-maximized="1"
     inkscape:current-layer="layer1"
     inkscape:export-bgcolor="#000000ff" /><defs
     id="defs1" /><g
     inkscape:label="Layer 1"
     inkscape:groupmode="layer"
     id="layer1"
     transform="translate(-37.061905,-40.744284)"><path
       id="path1-4"
       style="display:inline;opacity:1;fill:#fb8219;fill-opacity:1;stroke-width:0.620706"
       inkscape:label="Llama"
       d="m 117.52605,63.372855 c -0.93684,0 -2.04122,0.738521 -2.90223,1.940912 -1.23098,1.719045 -1.48462,3.732718 -0.77752,6.172684 l 0.37625,1.298111 -0.62227,1.247431 c -2.23454,2.513861 -0.98121,15.92277 -1.56723,20.501304 -0.18619,1.454602 -0.84053,2.117499 -2.32678,2.357578 -0.88326,0.142674 -4.75944,-0.04969 -10.592747,-0.525724 -5.153006,-0.420516 -8.867367,-0.370582 -10.629626,0.142417 -0.607408,0.176819 -1.143204,0.282569 -1.190657,0.235116 -0.106593,-0.106593 -0.06865,-1.39346 -1.055938,-2.487485 -1.681095,-1.862837 -8.016085,-1.348762 -8.016085,5.37624 0,1.788841 0.245047,2.166591 0.535988,2.663581 0.707699,1.20892 2.169073,0.59514 1.597379,-1.18616 -1.494081,-4.655321 4.564658,-8.191141 5.213615,-3.348729 -3.292732,2.880499 -7.951544,9.004929 -2.419163,17.826179 -0.04493,1.59465 -0.365643,3.15297 -0.792596,4.68596 -0.728939,2.53239 -0.808189,1.77856 1.003013,9.53104 1.488536,6.37137 1.804076,7.02987 2.213557,7.43935 0.17299,0.17299 5.311577,0.32896 5.616488,0 0.340679,-0.36766 0.531642,-0.86072 0.495573,-1.59256 -0.01128,-0.22888 -0.441566,-0.78771 -1.029316,-1.39979 l -0.985371,-1.02611 v -9.43448 l 1.355848,-1.50949 c 2.081536,-2.31742 4.46878,-5.52351 4.762307,-6.39562 0.05318,-0.158 0.327717,-0.2532 0.353476,0.0299 0.377189,4.14405 -3.566884,8.04621 -3.679746,9.26961 -0.03176,0.34427 1.179036,7.29631 1.410377,8.31439 0.05131,0.22581 0.549437,0.83458 1.106939,1.35297 0.891711,0.82915 0.965986,0.94245 0.616177,0.94431 -0.480189,0.002 -0.998522,0.43625 -0.998522,0.83654 0,0.60341 0.450859,0.61288 1.777325,0.6104 1.367656,-0.002 1.496162,0.17416 1.818382,-0.37112 0.850368,-1.43891 -1.56455,-2.97685 -2.610656,-3.9479 -0.298361,-2.4188 -0.997911,-4.80699 -1.147675,-7.24466 -0.0012,-0.36066 0.316905,-0.98117 1.079674,-2.1061 1.391822,-2.05264 2.133167,-3.62785 2.478504,-5.26686 0.152121,-0.72199 0.288596,-1.332 0.303437,-1.35553 3.404909,1.17798 7.004699,1.63611 10.588889,1.95759 l 6.2e-4,0.76694 c 0.001,1.27021 0.45961,3.69624 0.97286,5.14818 1.30693,3.69717 0.2677,11.36619 1.60668,12.41946 0.18491,0.14545 5.45678,0.31038 7.12149,0 0.79003,-1.94686 -1.08235,-3.10069 -1.98293,-3.97709 0.29006,-2.37344 -0.61598,-6.18608 0.38619,-8.27141 0.3591,-0.72023 0.71237,-1.88348 1.58744,-5.2258 0.31491,-1.20282 0.43435,-1.41563 1.24037,-2.21163 1.02663,-1.01388 1.01925,-1.02914 0.63767,1.32537 -0.28605,1.76507 -1.45592,5.96067 -1.45592,5.96067 -0.0318,0.34426 1.02988,7.31876 1.26122,8.33684 0.0513,0.22581 0.54944,0.83457 1.10694,1.35296 0.89171,0.82916 0.96598,0.94245 0.61618,0.94432 -0.48019,0.002 -0.99852,0.43625 -0.99852,0.83653 0,0.60342 0.45085,0.61289 1.77732,0.61041 1.36765,-0.002 1.49616,0.17415 1.81838,-0.37112 0.85036,-1.43892 -1.56455,-2.97685 -2.61066,-3.9479 -0.29836,-2.4188 -0.99791,-4.80699 -1.14767,-7.24466 0.96441,-2.35172 1.25204,-4.90332 1.5945,-7.40279 l 0.39869,-2.97729 c 6.46766,-6.1783 4.1604,-20.804777 2.32807,-31.346806 -0.0521,-0.299748 1.42631,-0.586456 3.62266,-0.716576 2.27014,-0.134491 3.16611,-0.414662 3.98927,-1.247431 1.12183,-1.134927 1.53509,-3.054756 1.01424,-4.710665 -0.55291,-1.757853 -1.18881,-2.233223 -6.61469,-4.94546 -1.73876,-0.86916 -3.1614,-1.615445 -3.1614,-1.658323 0,-0.04288 0.29619,-0.46731 0.6582,-0.943352 0.84447,-1.110454 1.33284,-2.394212 1.42224,-3.739407 0.11244,-1.691548 -0.45288,-2.322922 -1.84628,-2.061518 -1.02831,0.192913 -2.73942,2.055397 -3.81896,4.157036 -0.74054,1.441687 -0.92117,1.681738 -1.267,1.681738 h -0.40351 v -2.673525 c 0,-3.162143 -0.0858,-3.402931 -1.21279,-3.402931 z m -0.78009,2.299521 h 3.2e-4 c 0,0 -0.20614,3.753553 0.47601,5.314653 0.32722,0.748866 0.35732,0.844451 0.89941,0.695085 1.29685,-0.357335 2.11062,-0.286202 2.93365,-0.1097 1.64757,0.353328 9.83808,4.553831 10.48625,5.377844 0.42532,0.540431 0.42703,0.761477 0.004,0.627404 -0.98894,-0.313875 -2.831,1.132429 -0.69188,1.985177 0.80022,0.318997 0.84081,0.361292 0.57255,0.595328 -1.82377,1.089167 -3.2896,0.573516 -5.36757,0.884653 -0.81293,0.130548 -2.50453,0.596894 -3.52194,0.305683 -1.8421,-0.493705 -1.13887,1.552381 -0.24377,1.709645 0.73712,0.129509 0.77503,0.396129 0.87374,1.453359 1.04437,11.185056 5.07094,22.891373 -4.0361,30.937193 -1.59942,1.35789 -1.81088,1.73892 -2.58981,4.66512 -0.35089,1.31814 -0.57295,2.14843 -1.74396,5.37656 v 8.51454 c 0.50776,0.54273 1.01535,1.08562 1.52295,1.6285 h -3.62489 c -0.3085,-2.82125 -0.43755,-8.55547 -0.59533,-10.29861 -0.97513,-2.14977 -1.57018,-6.60538 -1.57204,-10.01313 -6.2e-4,-1.58865 -0.50733,-2.09399 -1.44213,-1.43924 -0.6465,0.72309 -0.36502,2.13093 -0.36502,3.06774 -6.62586,-0.32428 -12.276908,-2.5121 -12.049309,-3.22395 0.621231,-1.94298 0.708992,-3.86595 0.348665,-4.90216 -0.400772,-1.15252 -1.972049,-0.90804 -1.781816,-0.0263 1.262686,5.85268 -6.079725,12.13001 -7.353397,14.52814 -0.34032,3.59579 -0.02117,7.03631 -0.02117,10.65304 0.574807,0.55116 1.149438,1.1025 1.724079,1.65383 l -2.97953,6.2e-4 c -1.037257,-4.34315 -2.029379,-8.69691 -3.026359,-13.04943 l 0.620347,-2.1385 c 0.551512,-1.90112 0.620358,-2.33865 0.618744,-3.94469 l -0.0019,-1.80652 -0.789068,-1.53996 c -2.044891,-3.99053 -1.912564,-7.60344 0.413138,-11.2936 1.101432,-1.74763 2.477915,-2.77757 4.569851,-3.419294 1.495171,-0.45866 4.506141,-0.495281 9.032571,-0.110021 11.416024,0.971659 12.803374,0.901493 14.619234,-0.739028 0.40425,-0.365212 0.71415,-0.946419 0.99531,-1.509812 1.50696,-3.019605 -0.59566,-18.421253 2.14332,-22.202287 0.57172,-0.789246 0.56679,-0.948067 -0.0824,-2.706564 -1.37369,-3.720758 1.02515,-5.501336 1.02515,-5.501336 z m 7.41787,0.163908 c 0.41385,0 -0.61948,2.081407 -1.51623,3.054266 -1.15057,1.248227 -1.22961,0.781428 -0.16711,-0.986013 0.62533,-1.040213 1.46209,-2.068253 1.68334,-2.068253 z M 80.264451,72.95264 c -3.306787,-0.01433 -7.104159,0.06755 -9.455972,2.772319 -3.200861,3.805567 -2.15591,9.182888 -2.323577,13.764084 0,9.132979 -0.29508,9.910827 -1.530661,11.092157 -0.885982,0.84709 -1.58688,1.03727 -3.888881,1.55569 v 1.59032 1.59 c 2.302001,0.51842 3.002899,0.7086 3.888881,1.55568 1.235581,1.18134 1.530661,1.95951 1.530661,11.09249 0.167667,4.58119 -0.877284,9.9582 2.323577,13.76376 2.351813,2.70478 6.149185,2.78697 9.455972,2.77264 v -3.80196 c -1.954951,-0.14128 -4.090689,0.0539 -5.662036,-1.28656 -1.477756,-1.35563 -1.424691,-0.98131 -1.52617,-10.78712 -0.08467,-8.18133 -0.07531,-8.64366 -0.342892,-9.6526 -0.996459,-3.75725 -5.200463,-5.24633 -5.200463,-5.24633 0,0 4.204004,-1.48908 5.200463,-5.246334 0.267581,-1.00894 0.258224,-1.47127 0.342892,-9.652596 0.101479,-9.805815 0.04842,-9.431485 1.52617,-10.787122 1.571347,-1.340487 3.707085,-1.145601 5.662036,-1.286884 z M 135.681,73.445005 c 0.83696,1.314702 1.31437,3.171757 1.31607,5.119311 1.09604,1.031604 1.07357,1.556708 1.16564,10.45257 0.0847,8.181326 0.0753,8.643656 0.34289,9.652597 0.99646,3.757257 5.20046,5.246337 5.20046,5.246337 0,0 -4.204,1.48908 -5.20046,5.24633 -0.26758,1.00894 -0.25822,1.47127 -0.34289,9.6526 -0.10148,9.80581 -0.0484,9.43148 -1.52617,10.78712 -1.57135,1.3405 -3.70709,1.14528 -5.66204,1.28656 v 3.80196 c 3.30678,0.0143 7.10416,-0.0679 9.45598,-2.77264 3.20085,-3.80556 2.1559,-9.18257 2.32357,-13.76377 0,-9.13298 0.29508,-9.91114 1.53066,-11.09248 0.88598,-0.84708 1.58688,-1.03726 3.88889,-1.55568 v -1.59 -1.59033 c -2.30201,-0.51842 -3.00291,-0.70859 -3.88889,-1.55568 -1.23558,-1.181339 -1.53066,-1.959182 -1.53066,-11.092161 -0.16767,-4.581195 0.87728,-9.958516 -2.32357,-13.764084 -1.26438,-1.454135 -2.95033,-2.138012 -4.74948,-2.46856 z m -12.92402,1.186807 c -0.6089,-7.7e-5 -1.10252,0.493551 -1.10245,1.102449 1e-4,0.608772 0.49368,1.102205 1.10245,1.102128 0.60865,-9.7e-5 1.10203,-0.49348 1.10213,-1.102128 7e-5,-0.608774 -0.49335,-1.102352 -1.10213,-1.102449 z"
       sodipodi:nodetypes="cscccssssssssscccsscscccsscssscsccccsscccsscccsssccscscccccccsssssssssscsccccsssccscccsccsccccccccssccccccccccsssscssccsssscccscccscccccsscsscccccsscsscccccscccscccccccc" /></g></svg>
